<?xml version="1.0" standalone="no"?>
<!DOCTYPE svg PUBLIC "-//W3C//DTD SVG 20010904//EN"
 "http://www.w3.org/TR/2001/REC-SVG-20010904/DTD/svg10.dtd">
<svg version="1.0" xmlns="http://www.w3.org/2000/svg"
 width="3544.000000pt" height="3544.000000pt" viewBox="0 0 3544.000000 3544.000000"
 preserveAspectRatio="xMidYMid meet">

<g transform="translate(0.000000,3544.000000) scale(0.100000,-0.100000)"
fill="#000000" stroke="none">
<path d="M30310 29574 c-124 -71 -1098 -616 -2255 -1259 -1816 -1011 -1863
-1037 -2029 -1142 -349 -223 -865 -591 -1591 -1137 -176 -133 -325 -244 -332
-249 -7 -4 -31 6 -60 27 -26 18 -67 43 -90 55 -47 24 -52 19 -32 -37 9 -28 7
-38 -16 -79 -15 -27 -35 -70 -45 -98 -10 -31 -24 -51 -34 -53 -26 -5 -70 41
-142 151 -62 93 -80 115 -68 82 4 -8 -5 -39 -20 -68 -30 -60 -152 -207 -172
-207 -19 0 -59 84 -89 187 -14 48 -30 92 -35 97 -17 17 -50 -25 -66 -83 -9
-31 -24 -64 -33 -74 -21 -25 -68 -17 -124 22 -25 17 -47 27 -51 24 -19 -19 -1
-173 44 -372 24 -108 20 -148 -20 -191 -40 -43 -87 -41 -139 5 -47 43 -138
174 -214 308 l-55 99 -21 -21 c-41 -41 -55 -83 -58 -181 -4 -100 -19 -145 -89
-260 l-27 -45 48 45 c60 57 118 145 135 204 7 25 16 46 19 46 4 0 29 -14 55
-30 109 -69 214 -196 272 -327 81 -182 100 -451 49 -692 -7 -36 -11 -68 -9
-71 14 -14 172 206 181 252 9 44 20 23 48 -92 20 -79 28 -141 32 -250 6 -157
-2 -216 -42 -313 -29 -73 -30 -73 140 112 162 178 246 279 305 369 l49 74 7
-47 c8 -57 -10 -246 -32 -330 -9 -33 -33 -98 -55 -145 l-40 -85 176 175 c96
96 175 171 175 166 0 -14 -100 -247 -156 -361 -75 -155 -155 -288 -225 -372
-33 -40 -57 -73 -55 -73 15 0 329 95 431 130 207 72 334 130 453 208 23 15 23
14 17 -14 -47 -215 -168 -419 -305 -516 -70 -49 -70 -50 60 -69 159 -23 319 6
427 77 l52 34 -35 -77 c-19 -42 -39 -83 -46 -90 -21 -25 2 -26 100 -6 112 24
196 54 246 88 l35 24 -45 -77 c-112 -189 -291 -360 -457 -438 -29 -13 -48 -24
-44 -24 4 0 96 22 205 49 239 60 512 121 538 121 10 0 -33 -22 -96 -49 -128
-53 -268 -121 -302 -147 -20 -14 -20 -16 -3 -10 11 4 65 23 119 42 120 42 258
78 386 101 106 18 365 24 465 9 l60 -9 -122 -22 c-67 -13 -152 -33 -189 -45
-75 -24 -149 -59 -141 -66 3 -3 101 2 219 12 322 27 808 24 808 -4 0 -4 -33
-24 -73 -44 -307 -158 -461 -258 -572 -372 -73 -75 -105 -100 -169 -132 l-80
-39 60 -8 c116 -16 260 -3 369 32 344 111 417 137 489 170 45 21 97 51 116 67
l34 29 -42 -78 c-53 -98 -117 -182 -184 -242 -58 -50 -178 -115 -214 -115 -12
0 -25 -4 -28 -9 -12 -20 296 -35 357 -18 l29 8 -19 -32 c-40 -69 -140 -129
-216 -129 -46 0 -28 -21 54 -63 113 -58 215 -68 324 -32 36 12 -89 -98 -137
-120 l-48 -22 58 -31 c31 -17 90 -41 129 -55 l73 -24 -118 -28 c-223 -52 -387
-115 -455 -175 -32 -28 -97 -135 -97 -160 0 -24 152 26 200 66 l29 25 -9 -30
c-14 -49 -60 -133 -97 -179 l-35 -42 49 19 c152 60 272 125 353 190 l44 36
-42 -79 c-66 -123 -131 -215 -200 -284 l-63 -63 38 7 c86 15 189 45 221 65 44
25 55 14 49 -53 -4 -42 -2 -47 20 -53 52 -13 171 -7 204 10 l32 17 -6 -61 c-7
-80 -57 -186 -126 -268 -29 -35 -50 -63 -47 -63 2 0 20 8 38 19 20 11 64 21
112 25 44 4 83 9 87 12 4 2 -3 28 -14 56 -20 49 -22 70 -21 253 1 227 8 280
113 775 76 365 92 455 94 554 3 118 -2 129 -76 168 -83 44 -173 136 -219 223
l-37 71 23 55 c72 178 478 878 976 1684 273 442 289 469 629 1070 178 314 429
757 558 985 129 228 337 597 462 820 125 223 246 437 268 475 22 39 100 185
173 325 230 439 374 680 535 895 143 190 202 340 212 540 9 176 -25 316 -89
370 -38 32 -71 31 -128 -1z"/>
<path d="M3448 28615 c-32 -72 71 -488 196 -788 114 -276 205 -417 390 -607
168 -173 241 -263 401 -495 66 -96 244 -338 396 -537 152 -200 323 -425 380
-500 57 -75 234 -307 394 -515 159 -208 422 -551 584 -763 319 -417 340 -444
696 -875 498 -603 997 -1236 1139 -1445 32 -47 63 -88 70 -91 14 -9 201 -46
289 -58 126 -18 123 9 -8 70 -83 38 -326 129 -347 129 -6 0 -9 2 -6 6 12 12
362 -68 505 -116 83 -27 234 -70 335 -95 426 -103 624 -111 426 -17 -122 59
-531 200 -961 334 -76 23 -135 44 -130 45 5 2 230 -46 500 -107 270 -60 497
-110 504 -110 8 0 -11 25 -41 56 -31 32 -46 53 -35 49 332 -125 415 -152 415
-135 0 23 -122 82 -360 174 -63 25 -110 45 -104 45 29 2 441 -126 567 -175
177 -70 293 -86 245 -35 -11 11 -8 13 15 9 l28 -5 -28 29 c-37 40 -241 174
-428 283 -123 71 -143 86 -110 80 119 -20 376 -131 589 -254 49 -28 91 -51 94
-51 3 0 -9 16 -28 35 -56 58 -170 131 -312 200 l-133 65 47 0 c88 0 276 -71
430 -163 64 -37 75 -42 62 -23 -56 86 -350 222 -749 347 -242 76 -123 53 210
-40 482 -135 565 -154 565 -133 0 12 -77 83 -170 157 -47 37 -89 71 -94 76 -5
4 83 -39 195 -98 215 -111 358 -178 365 -170 6 5 -146 126 -331 263 -192 143
-192 143 35 12 91 -53 215 -122 275 -154 115 -60 116 -60 40 25 l-30 33 31
-15 c18 -9 57 -39 88 -68 31 -28 56 -48 56 -44 0 32 -95 103 -276 205 -132 75
-133 76 140 -44 120 -53 220 -95 223 -93 15 15 -234 210 -386 303 -123 74 3
47 174 -38 118 -59 291 -155 365 -203 95 -62 220 -128 227 -121 19 19 -120
172 -254 281 -34 27 -60 51 -58 53 7 8 152 -68 280 -147 72 -44 131 -76 133
-71 8 23 -31 71 -126 155 -185 163 -262 302 -262 470 l0 60 17 -35 c22 -45
200 -220 218 -214 7 3 51 -31 99 -75 47 -45 91 -81 97 -81 22 0 -1 81 -110
379 -128 348 -205 581 -222 671 -19 102 -15 281 10 373 22 85 73 197 100 221
14 13 16 11 17 -20 1 -42 81 -204 163 -331 93 -143 100 -121 28 86 -36 104
-39 121 -35 190 5 94 38 171 98 231 40 40 79 51 71 19 -17 -66 -12 -95 26
-169 72 -139 214 -357 239 -367 51 -19 69 101 33 222 -33 113 -33 295 0 410
27 97 89 231 90 197 1 -27 53 -155 79 -193 17 -27 17 -26 18 55 1 77 29 213
56 271 l12 26 12 -31 c16 -38 103 -130 165 -176 26 -19 49 -34 52 -34 3 0 -1
21 -9 47 -8 25 -14 56 -14 68 0 12 -9 30 -20 40 -11 10 -35 43 -52 73 -17 30
-71 104 -120 165 -89 112 -118 171 -118 240 0 50 -23 108 -56 143 -17 19 -36
34 -41 34 -5 0 -27 -44 -48 -97 -46 -118 -124 -275 -159 -323 -52 -68 -110
-79 -157 -29 -39 42 -43 77 -31 268 10 150 4 272 -12 288 -3 3 -24 -11 -46
-31 -80 -72 -124 -66 -161 22 -24 56 -46 82 -69 82 -14 0 -20 -15 -29 -82 -20
-140 -47 -218 -75 -218 -18 0 -185 158 -201 191 -8 15 -15 38 -15 51 -1 14
-24 -22 -61 -93 -61 -120 -100 -173 -122 -167 -6 3 -23 25 -37 49 -14 25 -40
65 -58 90 -29 39 -32 49 -27 87 9 58 -5 55 -89 -18 -38 -33 -73 -60 -78 -60
-5 0 -169 89 -366 199 -858 477 -1649 882 -1967 1008 -99 39 -400 152 -670
251 -269 99 -688 253 -930 342 -1730 636 -2635 997 -2762 1104 -39 32 -50 33
-65 1z m4729 -6311 c-3 -3 -12 -4 -19 -1 -8 3 -5 6 6 6 11 1 17 -2 13 -5z"/>
<path d="M12720 25560 c-21 -127 -79 -373 -90 -384 -16 -16 -34 15 -92 158
l-53 128 -6 -78 c-3 -44 -9 -97 -13 -120 -9 -50 -40 -104 -61 -104 -24 0 -18
-14 29 -72 78 -96 164 -148 246 -148 27 0 50 4 50 8 0 5 -11 19 -25 32 -14 13
-30 41 -36 62 -10 37 -4 104 10 113 4 2 81 -33 172 -79 163 -82 400 -178 472
-191 l37 -7 -31 68 c-17 38 -72 164 -121 279 -103 241 -176 387 -189 379 -5
-3 -9 -29 -9 -58 0 -98 -28 -209 -56 -220 -7 -3 -27 6 -43 20 -35 29 -124 165
-156 237 l-22 52 -13 -75z"/>
<path d="M21591 25319 c-7 -24 -15 -50 -18 -57 -4 -10 4 -8 23 4 16 10 30 19
32 19 1 1 -4 19 -11 40 l-14 39 -12 -45z"/>
<path d="M15090 24620 c0 -5 -17 -32 -38 -60 -21 -28 -51 -74 -66 -103 -16
-28 -32 -54 -35 -57 -12 -8 -74 -117 -139 -240 -79 -150 -122 -259 -136 -345
-7 -38 -15 -64 -19 -58 -16 26 -29 229 -20 300 5 39 6 70 1 67 -25 -16 -148
-245 -148 -275 0 -8 -4 -19 -9 -24 -9 -10 -38 -95 -45 -131 -2 -10 -11 -46
-20 -79 -8 -33 -20 -107 -26 -164 -5 -58 -12 -106 -13 -108 -2 -2 -15 18 -30
44 -30 56 -50 152 -41 203 5 31 1 27 -35 -35 -22 -38 -43 -82 -46 -97 -4 -16
-11 -28 -16 -28 -5 0 -9 -7 -9 -15 0 -8 -20 -57 -45 -109 -61 -129 -169 -450
-195 -582 -22 -114 -77 -287 -91 -292 -5 -2 -6 -9 -3 -15 4 -7 -1 -4 -11 5
-17 16 -19 49 -28 365 -5 191 -7 554 -4 806 3 251 2 457 -2 457 -9 0 -41 -105
-41 -135 0 -14 -4 -25 -9 -25 -5 0 -11 -17 -14 -37 -5 -42 -24 -117 -37 -148
-16 -39 -40 -131 -49 -185 -5 -30 -14 -75 -20 -100 -5 -25 -12 -65 -15 -90
-10 -89 -93 -216 -127 -195 -19 13 -39 105 -39 184 1 137 47 460 85 587 6 19
-10 -10 -48 -91 -10 -22 -29 -83 -42 -135 -47 -196 -77 -326 -80 -351 -4 -35
20 -301 33 -359 21 -93 25 -128 24 -240 -1 -144 -7 -196 -33 -307 -26 -113
-39 -153 -49 -153 -4 0 -20 24 -34 54 -15 30 -34 60 -43 67 -14 12 -14 10 2
-20 9 -19 19 -48 22 -65 2 -17 13 -65 23 -106 20 -83 20 -225 1 -273 -6 -16
-9 -32 -6 -37 8 -13 -17 -120 -26 -114 -12 7 -12 8 7 -78 18 -84 22 -255 7
-282 -8 -15 -13 -6 -27 50 -16 67 -43 130 -31 74 36 -175 47 -272 42 -398 -3
-74 -8 -136 -11 -139 -8 -8 -26 7 -56 48 l-28 39 -4 -34 c-2 -18 -1 -63 2 -99
3 -36 2 -63 -2 -61 -5 3 -8 18 -8 34 0 22 -4 28 -15 24 -11 -5 -15 1 -15 20 0
14 -3 26 -8 26 -4 0 -18 60 -30 133 -32 181 -45 214 -89 232 -59 25 -82 6
-108 -90 -30 -112 -59 -173 -88 -184 -14 -5 -27 -20 -30 -33 -10 -39 -59 -85
-87 -82 -37 4 -70 15 -70 25 0 4 -9 16 -20 26 -15 15 -23 46 -35 143 -8 68
-15 145 -15 170 0 37 -5 52 -26 70 -27 26 -27 26 -56 -24 -21 -38 -61 -212
-59 -259 1 -38 -4 -56 -27 -90 -16 -23 -35 -60 -42 -82 -7 -22 -21 -57 -32
-77 -16 -32 -23 -38 -51 -38 -21 0 -45 10 -69 30 l-37 31 10 -29 c5 -16 13
-77 17 -136 7 -105 7 -107 -15 -112 -13 -4 -23 -10 -23 -15 0 -15 29 -119 36
-131 5 -8 2 -9 -12 -3 -10 4 -43 10 -71 13 -82 7 -99 -20 -69 -104 7 -22 17
-67 21 -101 7 -61 6 -62 -18 -68 -49 -13 -229 87 -266 147 l-14 22 -8 -21 c-7
-19 10 -156 24 -193 10 -26 16 -80 8 -80 -17 0 -75 52 -110 99 -29 38 -41 47
-49 39 -9 -9 -17 -7 -35 10 -15 16 -17 21 -6 17 21 -8 33 20 15 34 -23 19 -95
185 -116 265 -11 44 -20 100 -20 124 l0 46 20 -22 c12 -12 38 -31 59 -41 l38
-20 12 41 c11 36 11 41 -6 53 -11 8 -28 33 -38 57 -10 24 -26 51 -34 61 -14
17 -30 54 -54 127 -6 19 -14 37 -18 40 -6 5 -9 19 -27 113 -15 78 -26 75 -52
-15 -25 -91 -37 -111 -57 -104 -8 4 -13 -2 -13 -17 0 -30 -11 -67 -19 -67 -4
0 -33 31 -66 70 -47 55 -61 67 -68 55 -5 -9 -13 -66 -18 -128 -5 -62 -11 -123
-14 -137 -22 -109 -29 -140 -34 -140 -3 0 -32 25 -63 55 -56 54 -58 55 -58 29
0 -15 -5 -44 -12 -66 -18 -60 -43 -49 -104 49 l-51 82 -7 -90 c-6 -85 -5 -93
19 -136 14 -25 25 -48 25 -50 0 -3 -15 6 -34 20 l-34 26 -7 -45 c-12 -84 -34
-144 -53 -144 -21 0 -84 64 -132 133 -18 26 -37 47 -41 47 -4 0 -5 -16 -2 -36
5 -28 2 -39 -10 -46 -10 -5 -17 -18 -17 -28 0 -27 -14 -25 -28 3 -11 20 -11
20 -6 -8 3 -16 26 -71 51 -122 47 -95 50 -117 19 -158 -14 -19 -17 -18 -82 45
-36 36 -86 91 -110 124 -26 34 -46 52 -48 45 -2 -8 -11 -45 -20 -84 -9 -38
-20 -73 -25 -78 -21 -21 -147 156 -183 256 l-24 68 -28 -143 c-16 -79 -33
-156 -40 -171 -11 -26 -12 -27 -34 -11 -13 8 -52 59 -87 112 -43 65 -65 90
-65 75 0 -27 -10 -53 -20 -53 -5 0 -22 23 -40 51 -17 28 -33 49 -36 46 -3 -3
9 -48 27 -101 18 -53 30 -99 26 -103 -4 -3 -17 3 -30 14 -39 37 -118 73 -158
73 -31 0 -41 -5 -52 -27 l-14 -26 -28 46 c-29 50 -41 57 -49 30 -17 -56 -2
-143 34 -194 13 -18 25 -52 28 -79 4 -44 2 -50 -25 -70 l-30 -22 33 -66 c18
-36 31 -69 28 -74 -10 -15 -44 -8 -115 24 -71 32 -71 32 -50 49 l22 18 -48 83
c-26 46 -55 94 -65 107 -21 28 -24 49 -5 32 9 -7 17 -7 23 -1 7 7 -15 60 -61
154 -39 79 -79 174 -89 212 -9 38 -24 92 -31 119 l-14 50 6 -60 c3 -33 12 -77
19 -99 8 -21 14 -49 14 -62 0 -13 5 -24 10 -24 6 0 10 -10 10 -23 0 -13 16
-55 35 -94 19 -39 35 -76 35 -82 0 -6 4 -11 8 -11 4 0 13 -14 19 -30 l11 -31
-36 7 c-53 9 -182 68 -291 132 -107 64 -246 192 -280 260 -12 23 -23 42 -24
42 -2 0 1 -35 6 -77 9 -85 44 -219 63 -243 6 -8 19 -30 28 -48 22 -43 38 -63
115 -137 35 -34 60 -65 55 -67 -14 -8 -159 10 -244 29 -92 21 -235 90 -289
139 l-41 36 15 -43 c8 -23 19 -47 24 -53 5 -6 26 -45 47 -86 21 -41 41 -79 46
-85 4 -5 30 -39 58 -75 90 -115 164 -185 224 -211 31 -13 56 -27 56 -31 0 -4
-13 -15 -30 -25 -16 -9 -30 -20 -30 -23 0 -10 -180 -94 -222 -104 -15 -3 -40
-11 -55 -17 -15 -6 -44 -12 -63 -14 -19 -2 -59 -6 -88 -10 -65 -8 -180 9 -240
36 -25 10 -46 18 -48 16 -6 -6 102 -163 138 -202 21 -22 38 -43 38 -47 0 -3
26 -23 58 -43 83 -52 170 -76 276 -78 80 -1 86 -3 60 -13 -16 -7 -68 -22 -116
-34 -48 -12 -85 -26 -82 -31 3 -5 3 -9 0 -9 -4 0 -52 -7 -109 -17 -56 -9 -127
-17 -157 -18 -129 -3 -335 28 -434 67 -27 10 -50 17 -52 15 -10 -10 121 -147
190 -199 135 -102 273 -160 415 -174 l71 -7 -35 -48 c-25 -35 -31 -49 -20 -49
8 0 15 -3 15 -7 -1 -12 -40 -60 -40 -49 0 5 -17 -10 -39 -33 -21 -22 -43 -41
-48 -41 -6 0 -23 -12 -38 -26 -15 -14 -50 -33 -77 -41 -71 -24 -46 -37 76 -41
75 -3 119 0 159 12 84 24 81 27 73 -69 -4 -55 -3 -85 4 -85 19 0 10 -35 -20
-80 -16 -25 -30 -49 -30 -55 -1 -12 -71 -64 -118 -89 -18 -9 -67 -25 -108 -36
-42 -10 -78 -21 -80 -23 -3 -2 14 -12 38 -22 55 -22 166 -31 209 -16 44 15 48
7 14 -29 l-28 -30 36 -15 c20 -8 41 -15 47 -15 5 0 10 -5 10 -12 0 -6 7 -20
17 -30 9 -11 11 -18 5 -18 -7 0 -12 -7 -12 -15 0 -8 5 -15 10 -15 6 0 10 -9
10 -19 0 -30 64 -68 145 -86 17 -4 44 -12 60 -20 38 -16 254 -43 320 -39 28 1
82 5 120 8 l70 5 -50 -13 c-27 -8 -62 -17 -76 -20 -21 -4 -25 -10 -22 -29 4
-22 -4 -26 -132 -66 -76 -24 -155 -44 -176 -44 -22 0 -39 -4 -39 -10 0 -7 -70
-8 -212 -4 -168 6 -233 4 -307 -8 -51 -9 -103 -13 -115 -10 -11 3 22 -17 74
-44 l95 -49 -70 -31 c-224 -102 -486 -190 -574 -192 -36 -1 -36 -1 27 -30 91
-43 199 -77 289 -92 l78 -13 -89 -66 c-150 -111 -248 -161 -385 -195 -32 -8
-22 -13 215 -121 287 -130 537 -255 542 -270 5 -16 -124 -34 -212 -31 l-78 4
43 -38 c118 -105 261 -211 321 -240 39 -19 65 -37 63 -44 -2 -7 3 -16 12 -21
13 -8 13 -10 -3 -16 -11 -4 -34 -9 -51 -12 -18 -2 -51 -8 -73 -13 -26 -6 -54
-5 -76 1 -19 5 -49 8 -67 6 l-32 -3 26 -25 c14 -14 72 -77 128 -140 117 -131
148 -161 210 -201 39 -25 42 -29 20 -29 -22 -1 -20 -3 14 -24 21 -13 34 -27
29 -30 -18 -11 -165 -4 -205 10 -22 8 -50 14 -63 14 -12 0 -40 10 -61 22 l-38
23 37 -45 c20 -25 47 -55 60 -66 13 -12 52 -54 87 -93 64 -72 160 -148 216
-172 46 -19 385 -223 385 -231 0 -5 -18 -8 -39 -8 -22 0 -42 -4 -45 -8 -3 -5
29 -28 70 -52 88 -50 100 -65 116 -143 10 -50 18 -63 55 -93 24 -20 43 -39 43
-44 0 -5 -14 -12 -31 -15 l-32 -7 29 -24 c16 -13 81 -55 146 -94 109 -66 174
-122 163 -140 -6 -10 -92 -31 -134 -32 -37 -1 -49 8 -33 24 29 29 12 34 -97
34 -119 -1 -123 -12 -13 -37 l53 -12 -26 -27 c-28 -29 -32 -46 -12 -53 6 -3 2
-6 -11 -6 -35 -1 -72 -44 -72 -84 0 -26 -7 -39 -32 -58 -49 -37 -70 -47 -88
-42 -10 3 -21 0 -24 -5 -9 -15 61 -69 113 -87 57 -19 183 -19 246 0 27 8 50
13 52 12 1 -2 -18 -43 -43 -91 -24 -49 -43 -90 -42 -91 12 -9 452 24 608 45
113 15 729 31 945 24 105 -3 228 -12 275 -20 47 -7 252 -36 455 -64 762 -104
1231 -180 1581 -255 173 -38 221 -43 166 -19 -37 16 -202 53 -360 80 -56 10
-99 21 -95 25 7 7 138 42 245 66 34 7 -4 21 -450 168 -1474 483 -1794 581
-2367 726 -258 65 -463 118 -454 119 21 0 598 -113 744 -146 231 -53 2082
-599 2615 -772 l185 -60 115 8 c63 5 131 9 150 10 l35 2 -32 14 c-38 16 -210
34 -348 35 l-100 1 53 24 c69 31 259 86 406 117 65 14 120 27 122 30 9 8 -64
37 -119 47 -29 6 -109 14 -178 18 l-124 8 55 17 c107 32 236 41 587 42 206 0
336 3 327 8 -23 13 -233 55 -315 63 -38 4 -72 10 -74 14 -9 15 96 30 210 30
63 0 183 -7 266 -16 226 -23 234 -7 27 61 -59 19 -116 36 -125 36 -10 1 25 5
77 9 55 5 129 19 175 34 85 27 247 106 252 122 8 24 -56 38 -202 43 l-150 6
60 38 c68 42 202 97 353 143 88 26 101 33 87 44 -21 17 -137 15 -235 -3 l-74
-15 24 20 c41 33 114 67 201 91 l82 24 -46 5 c-45 5 -137 43 -137 57 0 4 46
19 103 33 108 27 222 67 214 75 -3 2 -33 -1 -68 -7 -78 -14 -149 -6 -216 26
-52 25 -72 47 -34 37 31 -8 158 16 221 41 32 13 84 41 116 62 48 32 54 39 38
45 -11 4 -31 8 -46 8 -46 1 -133 39 -174 76 l-39 35 34 -17 c19 -9 68 -18 109
-21 75 -5 242 15 242 28 0 4 -14 10 -32 14 -48 10 -121 61 -188 133 -34 36
-60 67 -58 69 2 2 22 -3 43 -11 66 -23 246 -17 324 10 10 4 -1 20 -34 53 -53
52 -175 202 -175 215 0 4 15 -3 33 -16 17 -14 55 -36 82 -50 47 -23 188 -77
202 -77 4 0 -8 15 -27 33 -44 43 -70 101 -70 162 l0 50 20 -43 c16 -35 29 -47
73 -67 30 -14 81 -28 115 -31 l62 -7 0 31 c0 44 -44 156 -91 231 -22 35 -37
66 -34 69 8 8 85 -76 152 -164 l58 -77 7 59 c10 76 56 170 119 238 69 76 79
105 79 233 0 83 5 117 19 149 25 55 71 106 133 145 l51 33 -27 9 -26 9 50 45
c54 48 139 170 189 270 17 34 31 65 31 67 0 18 -73 -26 -126 -76 l-64 -60 26
58 c14 33 42 88 61 124 70 127 216 386 240 423 14 22 22 41 20 43 -3 4 -225
-237 -244 -265 -2 -2 -5 -2 -8 1 -18 17 80 199 185 346 33 46 60 85 60 87 0 2
-19 -7 -43 -20 -39 -22 -183 -85 -194 -85 -3 0 18 18 47 41 63 49 155 165 238
298 34 55 62 102 62 104 0 2 -26 -9 -57 -24 -32 -16 -76 -31 -98 -35 l-39 -7
47 54 c73 83 135 215 192 404 1 6 -23 -14 -54 -45 -37 -36 -89 -72 -149 -103
-93 -47 -122 -56 -122 -37 0 6 4 10 9 10 23 0 101 97 144 178 43 82 137 310
137 333 0 6 -17 -11 -38 -38 -50 -61 -119 -125 -179 -163 -71 -45 -73 -36 -6
28 70 67 138 168 194 287 36 77 39 89 39 173 0 115 32 337 70 490 21 82 47
152 89 237 90 181 212 560 352 1097 24 92 45 166 46 164 2 -2 -28 -275 -67
-607 -38 -331 -70 -608 -69 -613 0 -6 24 57 53 139 29 83 86 239 127 348 l74
199 7 -159 c18 -429 31 -680 37 -696 7 -18 49 321 76 608 26 280 35 529 35
1020 0 640 -18 894 -89 1290 -13 73 -138 674 -161 780 -50 220 -95 545 -113
805 -2 38 -4 26 -5 -38 -1 -51 -6 -100 -11 -110 -5 -9 -15 -82 -21 -162 -25
-324 -79 -745 -103 -800 -14 -32 -15 2 -16 405 0 242 -1 501 -1 575 l-1 135
-54 -235 c-90 -396 -155 -636 -163 -597 -2 9 3 86 12 170 21 205 24 468 6 527
-13 43 -14 43 -17 15 -27 -255 -65 -461 -111 -600 l-30 -90 -5 45 c-4 25 -9
79 -12 120 -10 137 -56 423 -86 545 -33 130 -95 265 -122 265 -3 0 -7 -258
-10 -572 -5 -564 -11 -691 -43 -896 -15 -102 -49 -201 -57 -172 -3 8 -10 53
-16 100 -7 47 -28 191 -47 320 -44 303 -90 661 -104 820 -19 206 -20 209 -41
110 -39 -183 -72 -390 -78 -490 l-6 -105 -18 113 c-34 209 -57 426 -69 637 -9
157 -14 199 -20 165 -4 -25 -14 -72 -23 -105 -28 -102 -34 -126 -70 -277 -19
-81 -35 -164 -35 -183 0 -19 -4 -35 -9 -35 -5 0 -11 -17 -13 -37 -3 -21 -32
-166 -65 -323 -34 -157 -64 -301 -66 -320 -3 -19 -15 -87 -26 -150 -11 -63
-23 -135 -26 -160 -2 -25 -7 -65 -10 -90 -3 -25 -7 -74 -10 -110 -8 -95 -28
-183 -47 -211 -16 -23 -17 -23 -31 -5 -17 24 -44 166 -58 311 -22 230 -10 945
22 1245 13 125 39 280 52 304 26 52 -103 -70 -162 -151 -17 -24 -29 -43 -26
-43 3 0 -2 -11 -11 -25 -9 -13 -26 -62 -39 -107 -28 -100 -29 -92 -10 98 29
284 65 534 91 617 3 9 1 17 -5 17 -6 0 -11 -4 -11 -10z m-4270 -6832 c41 -11
100 -26 130 -34 165 -43 217 -60 345 -107 77 -28 142 -54 145 -57 10 -11 97
-48 150 -65 110 -35 106 -30 113 -147 7 -116 31 -255 54 -308 36 -86 64 -141
96 -191 47 -72 172 -205 255 -271 37 -29 69 -55 72 -59 3 -3 15 -11 28 -18 30
-16 78 -94 127 -206 22 -50 54 -105 72 -124 l34 -34 80 6 c58 4 95 12 134 32
52 25 127 97 147 141 9 18 22 23 86 29 113 11 257 49 354 94 101 48 227 140
299 219 46 50 58 58 131 79 44 13 89 23 99 23 11 0 19 6 19 14 0 25 97 28 180
5 41 -12 92 -25 114 -30 21 -5 73 -23 115 -39 164 -63 352 -130 361 -130 13 0
13 3 -11 -76 -47 -153 -230 -548 -284 -612 -15 -18 -43 -36 -63 -42 -238 -64
-326 -90 -436 -132 -250 -94 -387 -117 -742 -125 -352 -8 -424 6 -933 181
-280 97 -423 173 -666 356 -353 265 -623 595 -729 890 -89 247 -95 536 -14
742 12 31 4 31 138 -4z m-1405 -97 c-25 -10 -141 -24 -133 -16 7 7 91 22 128
23 22 1 23 0 5 -7z m-158 -27 c-3 -3 -12 -4 -19 -1 -8 3 -5 6 6 6 11 1 17 -2
13 -5z m-182 -44 c-11 -5 -27 -9 -35 -9 -9 0 -8 4 5 9 11 5 27 9 35 9 9 0 8
-4 -5 -9z m5832 -1282 c-3 -8 -6 -5 -6 6 -1 11 2 17 5 13 3 -3 4 -12 1 -19z
m20 -395 c-3 -10 -5 -2 -5 17 0 19 2 27 5 18 2 -10 2 -26 0 -35z m10 -190 c-3
-10 -5 -4 -5 12 0 17 2 24 5 18 2 -7 2 -21 0 -30z m10 -135 c-3 -7 -5 -2 -5
12 0 14 2 19 5 13 2 -7 2 -19 0 -25z m-5748 -900 c85 -18 149 -34 143 -36 -16
-5 -343 58 -362 70 -20 12 30 5 219 -34z m188 -44 c-3 -3 -12 -4 -19 -1 -8 3
-5 6 6 6 11 1 17 -2 13 -5z m50 -10 c-3 -3 -12 -4 -19 -1 -8 3 -5 6 6 6 11 1
17 -2 13 -5z m190 -40 c-3 -3 -12 -4 -19 -1 -8 3 -5 6 6 6 11 1 17 -2 13 -5z"/>
<path d="M20183 24558 c11 -60 1 -676 -12 -748 -8 -44 -9 -45 -11 -10 -7 99
-21 154 -66 242 -29 58 -127 178 -145 178 -4 0 -3 -19 2 -42 28 -146 -21 -739
-92 -1106 -69 -363 -112 -540 -144 -603 -17 -32 -71 -57 -87 -41 -14 14 -12
173 2 282 5 41 9 100 8 130 l-1 55 -7 -65 c-4 -39 -7 29 -8 175 -1 132 -7 287
-12 345 -6 58 -17 204 -25 325 -13 202 -61 770 -68 805 -2 8 -6 -16 -10 -55
-14 -128 -157 -679 -187 -720 -4 -5 -16 -35 -26 -65 l-19 -55 -6 313 c-4 172
-9 315 -11 318 -3 3 -16 -37 -28 -88 -37 -152 -131 -456 -279 -898 -133 -400
-139 -414 -152 -385 -19 43 -17 315 5 505 35 311 106 785 152 1013 8 43 14 83
12 89 -6 18 -74 -49 -116 -115 -92 -147 -190 -419 -280 -777 -9 -35 -9 -34
-25 36 -24 105 -40 349 -33 509 6 139 6 140 -13 117 -23 -26 -40 -92 -56 -217
-3 -22 -7 -51 -10 -65 -8 -51 -25 -246 -23 -270 4 -64 -3 -164 -11 -150 -20
34 -70 466 -87 748 -4 62 -8 111 -10 109 -4 -3 -31 -137 -38 -189 -12 -76 -18
-115 -37 -233 -10 -66 -21 -132 -24 -147 -11 -61 -16 -87 -35 -198 -10 -63
-21 -133 -24 -155 -5 -39 -15 -105 -21 -135 -2 -8 -4 -28 -4 -45 -2 -53 -19
-7 -26 71 -6 63 5 466 21 714 2 47 7 117 9 155 l4 70 -14 -50 c-8 -27 -28
-133 -45 -235 -17 -102 -39 -239 -50 -305 -47 -283 -70 -426 -85 -512 -8 -51
-19 -121 -25 -155 -5 -35 -18 -118 -30 -185 -11 -68 -34 -207 -51 -310 -16
-104 -39 -244 -50 -313 -11 -69 -24 -147 -29 -175 -4 -27 -28 -149 -53 -270
-61 -293 -76 -393 -128 -840 -6 -55 -13 -111 -14 -125 -2 -14 -9 -122 -15
-240 -6 -118 -15 -287 -20 -375 -8 -166 -4 -782 6 -940 4 -49 12 -173 18 -274
l11 -185 28 58 c37 75 107 287 151 456 38 144 42 139 26 -35 -15 -164 -40
-514 -39 -544 1 -36 43 86 75 215 27 114 31 189 15 287 -13 77 -10 133 25 422
13 110 28 256 34 325 14 179 47 294 117 413 36 60 54 78 28 27 -46 -89 -68
-384 -45 -595 27 -236 23 -320 -24 -595 -13 -74 -22 -136 -21 -138 14 -16 78
243 92 369 10 94 25 48 31 -93 l5 -119 41 74 c23 41 50 87 62 102 l21 28 6
-144 c4 -79 12 -173 19 -208 l13 -64 29 97 c16 53 30 95 32 93 2 -2 13 -75 24
-163 23 -180 129 -824 138 -839 3 -5 -2 -4 -12 4 -23 19 -70 112 -118 236 -31
80 -37 91 -32 55 10 -66 85 -295 158 -479 35 -89 60 -161 55 -161 -18 0 -87
96 -142 197 l-58 108 6 -50 c14 -103 139 -523 222 -745 7 -20 -43 27 -70 64
-11 16 -35 63 -53 105 -39 87 -43 78 -14 -27 22 -79 77 -197 116 -249 13 -17
24 -35 24 -38 0 -4 -26 8 -57 25 l-57 32 58 -63 c77 -85 126 -150 175 -231 45
-74 50 -89 24 -66 -27 24 -83 50 -136 64 l-47 12 45 -51 c60 -66 114 -158 181
-307 30 -67 54 -124 54 -126 0 -3 -26 16 -57 42 -107 88 -98 83 -81 49 32 -63
50 -179 56 -359 l5 -179 18 36 c10 19 29 72 42 118 17 57 27 77 33 68 5 -8 8
-104 7 -214 l-2 -200 25 33 c52 66 59 61 60 -46 2 -103 19 -175 44 -180 25 -4
43 39 50 123 l6 80 8 -70 c4 -38 11 -97 14 -130 l7 -60 47 75 47 75 3 -140 3
-140 50 62 c27 34 51 61 52 59 2 -1 -4 -40 -12 -87 -20 -113 -21 -110 15 -92
30 15 54 13 132 -9 l37 -11 -34 -40 c-37 -43 -103 -163 -94 -171 3 -3 24 4 47
16 33 16 61 20 118 20 41 -1 79 -4 84 -7 5 -3 -3 -17 -16 -30 -26 -26 -57 -88
-69 -140 -5 -24 -4 -28 6 -17 14 13 133 15 184 2 17 -4 24 -8 17 -9 -16 -1
-112 -90 -112 -104 0 -20 74 -100 119 -128 36 -23 56 -29 103 -29 80 0 119
-19 189 -91 l60 -60 -31 -29 c-25 -23 -30 -36 -30 -72 0 -56 6 -63 60 -64 25
-1 72 -12 104 -24 l59 -23 -29 -21 c-16 -11 -42 -34 -59 -49 l-30 -29 56 5
c74 7 140 -7 219 -45 59 -28 63 -31 40 -37 -33 -9 -16 -19 63 -37 59 -14 186
-75 237 -114 l25 -20 -37 0 c-40 0 -59 -15 -31 -24 10 -2 50 -8 88 -11 81 -8
199 -45 261 -81 24 -14 44 -27 44 -28 0 0 -21 0 -46 2 -48 4 -220 -23 -244
-38 -11 -7 -2 -10 30 -10 62 0 143 -21 219 -55 l64 -29 -51 -17 c-92 -31 -197
-119 -142 -119 11 0 49 10 83 22 74 25 211 30 300 10 64 -15 67 -27 7 -35 -54
-7 -120 -40 -164 -83 -21 -20 -35 -38 -33 -40 2 -2 26 1 53 6 27 6 155 13 284
16 l235 5 -62 -34 c-73 -40 -212 -139 -244 -173 -27 -29 -27 -29 37 -4 72 27
193 40 372 40 l154 0 321 187 c704 408 1307 770 1512 906 154 103 553 395 704
516 310 247 512 487 592 704 14 40 18 44 13 17 -10 -56 -78 -215 -130 -300
-73 -121 -140 -206 -249 -316 -120 -120 -217 -196 -441 -347 -93 -62 -304
-207 -469 -322 -611 -425 -1252 -846 -1652 -1086 -222 -132 -228 -138 -133
-139 33 0 200 -24 359 -51 95 -16 73 -24 -89 -33 -154 -8 -340 -32 -353 -45
-27 -27 252 -34 457 -12 59 7 110 10 112 8 2 -2 -91 -48 -208 -103 l-211 -99
114 -7 c63 -4 134 -11 159 -16 l45 -8 -45 -22 -45 -22 105 6 c215 11 354 33
620 98 689 169 1242 285 1475 310 611 67 1118 83 1540 51 l90 -7 -40 36 c-22
20 -68 55 -102 78 l-61 41 186 47 c201 51 293 80 355 112 l40 20 -74 32 c-135
59 -274 133 -366 195 -91 61 -191 158 -176 171 4 4 53 14 108 24 271 46 591
136 716 202 72 38 132 95 127 121 -2 9 -46 29 -118 53 -311 102 -571 232 -669
333 l-33 35 58 11 c604 116 944 226 1010 326 9 14 15 27 13 29 -2 2 -94 25
-204 51 -198 47 -415 105 -467 126 -25 10 -17 15 140 93 217 108 335 173 455
253 86 57 138 105 125 118 -2 2 -62 -7 -133 -20 -191 -35 -389 -51 -478 -38
-68 9 -147 37 -147 52 0 3 48 23 108 44 178 64 325 140 387 200 30 29 55 60
55 69 0 22 -92 101 -156 135 l-51 27 56 41 c98 72 180 186 197 274 6 30 5 34
-10 28 -80 -31 -355 -87 -421 -87 l-40 1 39 22 c151 87 342 234 325 251 -2 3
-54 10 -114 16 -130 14 -246 36 -295 57 l-35 15 125 42 c185 62 310 125 310
156 0 4 -75 10 -167 13 -121 4 -190 11 -245 26 -131 34 -130 31 -55 111 38 40
72 86 82 114 10 26 16 48 14 50 -2 2 -29 0 -59 -5 -67 -9 -202 -11 -224 -3
-13 5 -10 13 19 46 18 22 38 53 43 68 l10 27 -216 6 c-252 6 -380 26 -563 87
-193 64 -328 140 -454 254 -55 50 -57 54 -30 49 17 -3 32 -9 35 -13 12 -17
205 -71 246 -69 38 2 44 6 44 25 0 17 -21 36 -92 81 -51 33 -116 72 -145 88
-52 29 -52 29 -36 56 14 23 20 25 49 19 19 -4 34 -6 34 -5 0 2 19 -7 43 -20
106 -59 187 -94 231 -100 l48 -8 -37 52 c-21 29 -35 55 -31 58 3 4 57 8 119 9
141 4 212 10 307 30 89 18 140 33 154 46 6 5 19 14 29 21 16 11 12 17 -47 60
-42 31 -72 46 -83 43 -21 -6 -37 3 -45 25 -11 28 -122 50 -245 47 l-112 -3
-48 46 c-56 54 -104 73 -228 93 -49 8 -133 31 -184 51 -104 39 -351 93 -458
99 -38 3 -80 7 -95 11 -15 4 -33 3 -40 -1 -7 -5 -22 -10 -33 -11 -11 -2 -45
-11 -75 -21 -30 -11 -79 -25 -108 -31 -69 -17 -128 -46 -137 -68 -18 -44 -16
-78 6 -102 16 -17 19 -25 9 -31 -9 -6 -6 -10 11 -15 42 -14 153 -92 217 -153
59 -57 75 -82 52 -82 -6 0 -9 -5 -8 -12 2 -7 -23 -18 -62 -27 -36 -8 -66 -15
-68 -16 -7 -5 12 -35 23 -35 6 0 32 -14 56 -32 24 -18 60 -40 79 -49 l35 -17
-40 -6 c-98 -15 -250 -48 -362 -79 -108 -30 -123 -32 -123 -17 0 31 -89 57
-395 115 -147 28 -233 39 -380 46 -212 11 -473 -1 -590 -27 -181 -39 -410 -79
-560 -97 -41 -5 -41 -4 -37 27 2 17 -6 59 -18 91 -34 94 -36 119 -9 144 12 11
19 21 13 21 -5 1 13 12 39 26 27 14 51 23 54 20 3 -3 -7 -11 -23 -18 -16 -6
-41 -23 -56 -37 -30 -26 -38 -57 -14 -48 105 41 185 80 251 124 44 29 72 53
63 53 -9 0 -20 -4 -23 -10 -5 -9 -131 -50 -151 -50 -9 1 150 65 191 77 30 10
41 24 47 64 5 31 2 41 -21 63 -15 14 -30 23 -34 19 -4 -3 -7 -1 -7 5 0 13
-122 55 -159 54 -14 0 -30 4 -36 8 -5 4 -35 13 -65 19 -73 16 -139 50 -155 81
-11 22 -10 28 8 45 20 20 20 20 7 -4 -10 -19 -9 -26 3 -38 35 -35 261 133 346
257 l25 35 -25 -22 c-13 -11 -55 -38 -94 -58 -38 -20 -80 -46 -92 -57 -13 -12
-26 -18 -30 -15 -8 9 -13 6 102 76 171 103 201 148 128 192 -21 13 -41 27 -44
32 -6 8 -60 -1 -69 -12 -11 -14 -79 -61 -87 -61 -5 0 -22 -13 -39 -29 -40 -39
-99 -71 -132 -71 -16 0 -33 -5 -40 -12 -9 -9 -12 -9 -12 -1 0 20 -110 132
-154 158 -23 13 -83 40 -135 60 -111 42 -113 43 -146 102 -27 49 -33 75 -13
55 7 -7 16 -12 20 -12 9 0 61 100 77 151 12 38 49 61 118 74 17 4 37 12 42 19
6 8 33 19 59 26 53 15 92 51 92 87 0 13 4 22 9 19 14 -9 74 79 131 194 35 71
69 122 103 158 28 28 55 52 59 52 15 0 -20 -54 -67 -104 -25 -27 -44 -50 -43
-51 2 -1 13 -7 24 -13 19 -10 25 -6 57 42 48 72 110 196 98 196 -6 0 -15 -8
-20 -17 -9 -16 -10 -16 -11 -2 0 9 18 35 39 57 21 22 42 51 46 63 23 71 66 92
121 59 19 -12 34 -27 34 -34 0 -7 9 -21 19 -30 11 -10 25 -32 32 -49 7 -18 16
-34 19 -37 3 -3 19 -27 34 -54 26 -44 30 -47 39 -30 25 46 75 100 131 140 33
24 65 44 71 44 5 0 23 55 39 123 32 139 39 154 69 168 18 8 15 9 -13 4 -19 -3
-72 -22 -118 -42 -45 -20 -84 -34 -87 -31 -3 3 -1 17 5 32 5 15 10 40 10 55 0
15 4 31 9 36 5 6 13 37 17 70 8 76 19 105 39 105 17 0 90 43 100 60 3 6 2 25
-4 43 -6 17 -13 54 -17 82 -7 53 -39 109 -93 160 -28 26 -35 28 -59 19 -26
-10 -28 -9 -26 10 1 12 3 23 5 26 3 6 3 11 13 84 4 33 13 67 19 76 8 14 3 27
-25 66 -20 27 -47 59 -61 72 -14 13 -23 31 -21 40 1 9 11 51 20 92 10 41 17
78 16 82 -3 13 40 89 54 95 26 10 24 38 -10 103 l-36 67 15 78 c8 42 18 81 21
86 4 8 7 18 17 64 2 6 6 16 10 23 5 6 6 12 2 12 -3 0 6 22 20 50 30 59 31 70
6 118 -18 35 -18 43 -5 122 7 47 14 113 14 148 0 46 4 62 14 62 8 0 17 7 20
16 3 8 10 13 15 10 12 -8 7 113 -6 144 -10 24 -11 24 -18 5 -59 -170 -100
-234 -136 -214 -35 18 -39 42 -19 106 52 166 29 396 -62 618 -27 66 -56 130
-66 142 -16 22 -17 18 -18 -95 -2 -147 -38 -334 -100 -524 -46 -140 -77 -200
-106 -206 -22 -4 -28 18 -39 148 -5 63 -11 135 -13 160 -6 69 -44 262 -77 393
-28 112 -145 491 -157 512 -4 6 -8 18 -9 27 -2 10 -10 32 -18 50 l-15 33 5
-35 c2 -19 16 -138 31 -265 23 -201 25 -255 20 -430 -8 -308 -44 -417 -114
-342 -38 40 -61 118 -67 229 -12 214 -15 256 -30 363 -24 168 -25 173 -49 290
l-23 110 -7 -65 c-26 -242 -53 -440 -92 -675 -49 -296 -163 -915 -171 -928 -3
-4 -19 17 -37 46 -36 60 -56 156 -56 270 0 54 -5 96 -26 222 -21 130 -110 446
-167 597 l-33 87 -12 -66 c-14 -75 -28 -104 -75 -161 l-34 -41 -1 157 c-1 173
-10 250 -48 391 -22 83 -103 284 -122 303 -4 4 -5 -23 -4 -60 2 -37 -2 -100
-9 -140 -14 -84 -52 -196 -62 -186 -4 4 -7 31 -7 60 0 70 -49 254 -104 390
-44 109 -232 504 -239 504 -2 0 0 -24 6 -52z m-916 -1010 c-3 -7 -5 -2 -5 12
0 14 2 19 5 13 2 -7 2 -19 0 -25z m1963 -4272 c0 -3 -4 -8 -10 -11 -5 -3 -10
-1 -10 4 0 6 5 11 10 11 6 0 10 -2 10 -4z m625 -529 c-50 -35 -75 -49 -75 -44
0 9 72 57 85 57 5 0 1 -6 -10 -13z m1865 -936 c5 -11 20 -60 32 -108 19 -74
22 -115 22 -253 -1 -181 -17 -264 -83 -437 -121 -311 -451 -675 -861 -948
-187 -124 -286 -171 -575 -270 -429 -147 -515 -165 -795 -165 -202 0 -365 12
-505 36 -89 15 -132 28 -402 122 -78 27 -203 64 -277 82 l-134 33 -65 126
c-105 202 -212 457 -231 547 l-7 31 168 62 c92 34 197 73 233 86 36 13 99 33
140 44 41 11 89 24 105 29 36 10 137 3 130 -8 -3 -5 14 -14 37 -20 24 -6 65
-17 92 -25 26 -8 54 -15 60 -15 7 0 42 -30 78 -67 97 -99 206 -182 258 -198
14 -4 39 -15 55 -24 58 -33 210 -72 338 -87 49 -5 60 -10 72 -33 24 -48 96
-112 153 -139 40 -18 79 -27 134 -30 76 -4 78 -4 107 27 16 17 48 75 71 128
42 97 89 183 101 183 3 0 44 29 90 64 92 69 273 251 284 285 3 12 10 21 15 21
17 0 101 191 122 276 12 53 23 136 25 206 3 73 9 121 16 127 7 5 48 21 92 36
44 14 94 33 112 41 17 8 36 14 42 14 6 0 11 4 11 9 0 4 35 21 78 36 42 16 93
35 112 44 28 12 503 146 532 150 4 1 12 -8 18 -18z m-3751 -1641 c11 -24 11
-24 -3 -6 -9 11 -16 24 -16 30 0 12 5 7 19 -24z m25 -46 c3 -8 2 -12 -4 -9 -6
3 -10 10 -10 16 0 14 7 11 14 -7z m41 -74 c14 -27 23 -50 20 -50 -2 0 -16 23
-30 50 -14 28 -23 50 -20 50 2 0 16 -22 30 -50z m-1078 -132 c-3 -8 -6 -5 -6
6 -1 11 2 17 5 13 3 -3 4 -12 1 -19z"/>
<path d="M16771 24204 c0 -11 3 -14 6 -6 3 7 2 16 -1 19 -3 4 -6 -2 -5 -13z"/>
<path d="M13831 24074 c0 -11 3 -14 6 -6 3 7 2 16 -1 19 -3 4 -6 -2 -5 -13z"/>
<path d="M23451 23429 c-1 -21 -97 -258 -161 -399 -82 -181 -84 -186 -68 -173
16 13 98 33 133 33 35 0 40 -21 20 -86 -9 -30 -15 -57 -13 -59 7 -7 45 130 67
245 12 58 23 114 26 125 11 43 16 213 7 270 -5 33 -10 53 -11 44z"/>
<path d="M22586 23288 c7 -110 20 -160 65 -240 20 -36 40 -81 44 -100 4 -18
11 -35 15 -38 7 -6 57 -185 65 -240 4 -19 9 -37 12 -40 7 -7 -6 94 -19 144 -5
22 -14 60 -18 85 -18 98 -144 488 -165 509 -2 2 -1 -34 1 -80z"/>
<path d="M23631 23071 c-39 -152 -401 -775 -419 -722 -5 15 -43 -63 -47 -96
-5 -39 17 -26 95 52 41 41 80 75 87 75 16 0 16 -3 -1 -45 -8 -18 -12 -36 -9
-38 2 -3 -5 -23 -16 -44 -10 -22 -27 -67 -35 -100 -9 -34 -29 -90 -45 -125
-20 -46 -28 -78 -27 -118 1 -30 4 -57 9 -60 4 -3 24 17 45 44 20 27 42 51 48
53 14 5 26 -37 15 -51 -7 -9 -15 -35 -27 -81 -1 -5 -18 -55 -38 -110 -39 -105
-55 -176 -62 -261 -3 -44 0 -56 21 -78 24 -26 25 -26 57 -10 18 9 47 32 64 50
47 51 58 45 48 -23 -4 -32 -8 -73 -8 -90 0 -18 -3 -33 -6 -33 -4 0 -10 -17
-13 -37 -3 -21 -9 -51 -13 -68 -10 -41 -7 -156 4 -167 6 -6 27 -4 56 6 48 16
98 21 109 10 3 -3 2 -17 -3 -30 -6 -14 -6 -26 0 -29 9 -5 3 -34 -9 -45 -3 -3
-14 -19 -23 -36 -18 -31 -18 -44 -2 -214 3 -41 8 -101 9 -134 4 -73 13 -83 60
-69 34 11 35 10 29 -9 -7 -24 -4 -22 71 32 120 86 179 82 229 -17 19 -38 20
-104 2 -196 -14 -74 -11 -163 6 -184 6 -7 24 -13 40 -13 16 0 38 -5 50 -11 31
-17 70 5 142 82 52 54 66 64 71 51 4 -16 -79 -196 -107 -229 -16 -20 6 -16 33
6 54 41 66 43 92 15 13 -14 37 -52 52 -84 l27 -57 97 29 c147 44 187 50 221
33 34 -18 63 -56 81 -110 7 -22 17 -44 21 -50 4 -5 8 -30 8 -56 0 -71 39 -77
172 -29 51 19 90 27 103 23 11 -4 25 -6 32 -5 15 3 43 -37 37 -52 -2 -6 5 -22
17 -35 18 -20 21 -30 15 -75 -3 -29 -14 -77 -25 -108 -27 -78 -17 -114 29
-111 64 3 93 71 37 87 -18 6 -12 10 33 22 30 8 91 31 135 51 100 45 158 47
194 6 22 -25 23 -33 18 -109 l-6 -83 29 -6 c33 -7 70 -48 70 -77 0 -11 -5 -16
-10 -13 -6 4 -8 10 -5 15 7 11 -50 70 -68 70 -8 0 -18 -7 -21 -16 -9 -24 4
-85 20 -91 22 -8 7 -64 -37 -145 -22 -39 -39 -72 -39 -74 0 -2 -7 -12 -16 -21
-43 -49 -72 -96 -67 -109 3 -8 1 -14 -5 -14 -5 0 -12 -6 -15 -13 -4 -11 2 -12
32 -4 57 15 87 3 119 -49 16 -24 44 -52 63 -62 18 -9 44 -33 57 -52 13 -19 43
-47 68 -62 l44 -28 32 27 c17 16 40 36 50 46 10 9 23 17 28 17 6 0 10 4 10 8
0 15 118 64 132 56 7 -5 19 -9 25 -10 7 -1 32 -16 55 -33 l42 -31 56 55 c47
46 68 59 125 77 159 47 304 159 556 431 40 42 70 77 67 77 -3 0 -32 -16 -64
-35 -138 -83 -375 -123 -569 -96 l-50 7 65 32 c80 41 84 45 40 39 -19 -2 -55
-16 -80 -31 -49 -28 -128 -36 -134 -13 -3 6 -6 31 -9 54 -4 37 -2 42 19 47 22
6 41 31 65 89 6 15 15 27 20 27 5 0 9 4 9 9 0 5 -33 -2 -73 -14 -40 -13 -107
-30 -149 -38 l-75 -14 73 93 c67 86 132 189 150 239 6 14 -4 9 -34 -17 -41
-37 -143 -95 -141 -81 0 5 13 31 29 58 37 64 70 134 73 154 2 9 10 30 19 46 9
17 18 54 22 84 l6 53 -41 -52 c-50 -63 -96 -110 -169 -171 -54 -45 -150 -109
-164 -109 -3 0 4 17 17 38 56 90 129 293 108 300 -7 2 -11 49 -11 135 l0 132
-33 -58 c-17 -31 -52 -82 -76 -113 -49 -61 -186 -194 -200 -194 -13 0 -21 80
-21 203 0 100 -1 108 -16 96 -15 -12 -16 -10 -10 26 3 22 9 58 12 79 3 22 10
50 15 63 5 13 7 23 4 23 -2 0 2 18 10 40 8 22 12 40 8 40 -3 0 -1 6 4 13 8 10
46 102 48 117 0 3 9 20 18 37 10 18 22 45 28 60 l10 28 -32 -30 c-47 -44 -169
-235 -235 -368 -37 -74 -61 -112 -66 -104 -20 30 17 262 61 376 19 52 19 53 0
35 -10 -9 -19 -15 -19 -12 0 12 31 93 38 98 4 3 19 30 33 60 15 30 50 86 78
123 36 48 44 64 28 56 -69 -37 -227 -241 -328 -425 -22 -41 -44 -76 -49 -79
-12 -7 -23 153 -18 241 4 65 3 72 -10 61 -13 -10 -14 -6 -9 33 15 98 20 117
44 175 13 33 30 74 36 90 7 17 18 36 25 43 6 7 12 18 12 23 0 12 81 118 116
151 67 62 65 66 -12 43 -108 -32 -245 -146 -360 -299 -41 -55 -55 -81 -45 -84
19 -6 51 -40 51 -53 0 -6 -7 -9 -15 -5 -8 3 -15 2 -15 -2 0 -4 -10 -8 -21 -9
-12 -1 -29 -8 -38 -16 -31 -28 -110 -67 -136 -67 -14 0 -33 -9 -42 -20 -23
-26 -33 -25 -33 4 0 34 -20 47 -57 37 -38 -11 -113 -54 -172 -98 -24 -18 -46
-32 -47 -30 -7 7 27 119 61 204 20 48 41 106 46 128 5 22 15 56 22 75 8 19 13
42 12 50 -1 8 -3 23 -3 32 -2 13 -10 16 -39 13 -78 -8 -119 -30 -257 -134
l-104 -79 15 57 c8 31 46 135 84 233 38 97 69 191 69 208 0 32 -1 32 -37 25
-21 -4 -64 -17 -95 -30 -32 -13 -58 -22 -58 -19 0 13 58 143 111 246 32 64 59
122 59 128 0 49 -149 -94 -233 -223 l-52 -80 -7 39 c-19 116 29 297 139 514
40 80 73 148 73 152 0 21 -54 18 -112 -5 -161 -65 -194 -85 -303 -184 l-108
-98 6 37 c19 123 226 468 443 739 31 39 54 73 51 75 -4 5 -116 -45 -127 -56
-3 -3 -34 -19 -70 -37 -36 -18 -112 -60 -170 -94 -58 -34 -127 -74 -155 -89
-27 -15 -67 -37 -89 -50 l-38 -23 35 49 c35 49 81 134 73 134 -2 0 3 21 11 48
17 53 26 304 12 355 -4 18 -10 50 -14 72 -15 110 -26 124 -44 56z"/>
<path d="M13253 22675 c-28 -62 -49 -116 -46 -118 2 -3 18 -1 35 4 35 9 58 1
102 -40 l29 -26 -7 86 c-5 74 -33 174 -55 201 -3 4 -29 -44 -58 -107z"/>
<path d="M13254 22147 c-63 -97 -60 -85 -25 -104 17 -10 31 -23 31 -29 0 -6 8
-22 19 -35 10 -13 21 -33 24 -44 2 -11 5 12 6 50 0 40 -7 97 -17 132 l-17 62
-21 -32z"/>
<path d="M8100 21946 c0 -35 -49 -144 -87 -194 -14 -18 -23 -36 -20 -38 6 -6
479 -85 483 -81 2 2 -84 49 -191 107 -108 57 -194 105 -192 106 3 4 291 -72
446 -117 58 -17 144 -50 191 -74 123 -62 188 -82 205 -64 48 51 -86 127 -460
262 -99 36 -224 78 -277 95 l-98 30 0 -32z"/>
<path d="M24825 21794 c-86 -51 -138 -97 -199 -172 -59 -74 -121 -170 -114
-178 3 -2 26 4 53 13 35 13 52 26 62 48 30 66 119 176 217 267 33 32 56 58 50
58 -5 0 -37 -16 -69 -36z"/>
<path d="M13232 21734 c-27 -41 -27 -48 -2 -65 11 -8 32 -41 45 -74 13 -33 25
-51 25 -40 0 19 -38 207 -43 212 -1 1 -12 -14 -25 -33z"/>
<path d="M7945 21672 c-17 -15 -43 -36 -59 -48 l-28 -20 83 -17 c46 -9 170
-44 274 -77 105 -33 220 -66 258 -72 59 -11 69 -10 84 5 16 15 15 18 -3 38
-24 27 -92 61 -207 105 -90 34 -345 114 -363 114 -5 0 -23 -13 -39 -28z"/>
<path d="M7836 21574 c-17 -45 20 -197 52 -209 32 -12 296 -18 325 -6 79 31
-28 120 -234 192 -124 44 -134 45 -143 23z"/>
<path d="M24761 21268 c-40 -54 -115 -207 -107 -216 2 -2 26 8 53 21 26 14 74
30 105 37 53 12 58 15 62 44 3 17 9 57 14 89 5 31 7 57 5 57 -2 0 -21 -9 -43
-20 -50 -26 -50 -26 -40 10 14 49 -2 42 -49 -22z"/>
<path d="M7936 21223 c183 -396 241 -545 265 -677 l13 -69 120 -58 c151 -73
183 -79 222 -46 24 21 28 32 27 68 -10 288 -13 321 -31 362 -59 131 -242 280
-545 441 l-107 58 36 -79z"/>
<path d="M13261 21125 l-23 -44 20 -25 19 -25 7 66 c4 36 5 67 4 69 -2 1 -14
-17 -27 -41z"/>
<path d="M24854 20869 c-15 -30 -15 -31 1 -25 9 3 21 6 26 6 12 0 12 37 -1 45
-5 3 -17 -9 -26 -26z"/>
<path d="M11680 20831 c0 -10 -7 -35 -15 -55 -15 -34 -14 -36 5 -36 11 0 23 1
27 3 9 2 13 65 6 90 -6 23 -23 22 -23 -2z"/>
<path d="M11797 20605 c-21 -44 -22 -67 -2 -41 8 11 15 15 15 10 0 -6 7 -11
16 -11 12 0 14 7 10 31 -10 47 -21 50 -39 11z"/>
<path d="M26939 20143 c-13 -14 -42 -39 -63 -54 l-39 -29 44 0 c51 0 115 16
125 31 10 16 -4 53 -24 66 -17 10 -23 8 -43 -14z"/>
<path d="M24218 18133 c6 -2 18 -2 25 0 6 3 1 5 -13 5 -14 0 -19 -2 -12 -5z"/>
<path d="M17485 14439 c-49 -27 -99 -59 -110 -72 -47 -52 -87 -77 -121 -77
-20 0 -44 -4 -54 -10 -15 -8 -28 -1 -72 43 -60 59 -144 106 -233 133 -71 22
-320 25 -369 5 -50 -20 -256 -212 -301 -280 -28 -42 -54 -150 -56 -230 -1 -34
4 -48 25 -67 38 -36 35 -71 -8 -89 -64 -27 -198 -42 -254 -30 -88 20 -178 72
-254 146 -39 38 -77 69 -85 69 -20 0 -63 -46 -63 -68 0 -54 127 -168 248 -224
101 -46 181 -61 307 -55 89 4 127 11 199 36 114 39 198 43 220 9 7 -13 16 -45
20 -72 19 -149 113 -243 388 -390 106 -56 202 -131 212 -164 5 -17 39 -299 50
-417 9 -87 -8 -176 -36 -195 -13 -8 -50 -36 -83 -62 -67 -53 -437 -274 -561
-336 -136 -68 -274 -151 -379 -227 -55 -40 -134 -94 -175 -121 -41 -26 -151
-105 -245 -175 -136 -102 -198 -157 -312 -277 -79 -83 -143 -157 -143 -164 0
-21 21 -38 46 -38 23 0 83 56 253 234 52 54 112 110 133 123 21 14 35 29 33
34 -13 20 256 220 453 337 64 38 171 100 237 137 186 105 724 437 755 465 l27
25 16 -22 c9 -11 38 -29 64 -39 27 -10 201 -95 388 -189 187 -94 378 -189 425
-211 47 -22 162 -90 255 -151 94 -61 199 -126 235 -144 41 -22 70 -44 78 -62
9 -18 46 -46 110 -83 53 -31 120 -70 148 -87 29 -16 94 -67 145 -113 94 -84
189 -144 227 -144 54 0 53 71 -2 90 -18 6 -92 60 -165 120 -73 61 -151 120
-174 132 -85 43 -365 212 -442 268 -101 72 -153 101 -512 294 -278 149 -591
330 -660 382 -18 14 -38 34 -44 46 -14 26 -13 467 2 521 9 33 32 54 227 200
119 89 230 170 245 180 15 10 35 35 44 55 8 20 24 57 35 82 28 64 34 136 14
184 -9 21 -16 41 -16 44 0 6 136 -6 310 -29 348 -45 556 -7 610 114 24 51 25
105 4 135 -32 46 -103 14 -108 -48 -2 -19 -4 -38 -5 -42 -6 -32 -192 -64 -285
-50 -46 6 -53 11 -88 62 -21 30 -38 59 -38 64 0 4 16 24 36 44 59 59 64 101
14 127 -31 16 -48 65 -37 106 5 19 2 21 -21 16 -15 -3 -35 -9 -44 -12 -16 -6
-18 -1 -18 44 l0 51 -107 52 -108 53 -110 1 c-95 1 -118 5 -172 28 -34 14 -66
26 -70 25 -4 0 -48 -23 -98 -50z"/>
<path d="M9835 13700 c-49 -5 -117 -14 -150 -20 -33 -6 -186 -17 -340 -25
-433 -22 -475 -26 -475 -41 0 -18 122 -74 260 -120 114 -38 116 -38 275 -37
88 0 241 8 340 18 146 13 237 16 480 11 500 -10 713 -17 865 -27 420 -27 640
-39 880 -49 146 -5 292 -12 325 -14 33 -2 98 2 145 8 l85 11 -210 39 c-116 21
-300 56 -410 77 -362 70 -659 111 -1095 150 -261 23 -818 34 -975 19z"/>
<path d="M9735 13385 c-41 -110 -247 -345 -345 -395 -23 -12 -59 -22 -81 -22
-21 0 -37 -3 -35 -7 3 -4 133 -69 290 -146 l286 -139 -52 -45 c-59 -51 -488
-465 -485 -467 1 -1 74 23 162 53 254 86 566 181 740 224 163 41 325 61 325
42 0 -6 -42 -72 -94 -147 -104 -151 -242 -376 -273 -446 -24 -55 -37 -103 -26
-98 4 2 78 38 163 80 361 177 663 282 881 304 46 4 96 1 164 -11 109 -20 307
-15 353 9 23 12 22 13 -29 19 -53 6 -196 44 -254 68 -29 12 -28 13 42 20 40 5
110 18 155 29 98 25 329 99 341 110 14 13 -58 60 -130 85 -67 23 -171 47 -266
60 -59 8 -57 20 11 61 85 52 193 82 543 154 117 24 135 32 124 50 -12 20 -162
5 -305 -30 -69 -17 -238 -64 -376 -105 -139 -41 -260 -75 -270 -75 -57 2 167
87 649 246 255 84 323 110 310 118 -41 23 -320 17 -473 -11 -63 -11 -17 23 77
57 134 48 580 156 813 196 l45 8 -45 8 c-117 22 -431 58 -546 63 -116 5 -316
26 -654 70 -318 41 -399 45 -1061 49 l-657 5 -17 -44z"/>
<path d="M9515 13410 c-44 -6 -40 -7 35 -8 47 0 94 3 105 8 24 10 -64 10 -140
0z"/>
<path d="M12765 13324 c88 -16 116 -16 50 1 -27 7 -66 13 -85 13 -23 0 -11 -5
35 -14z"/>
<path d="M25175 13174 c-200 -15 -688 -56 -767 -64 -220 -24 -702 -127 -1518
-323 -128 -31 -275 -60 -340 -67 -63 -6 -133 -20 -155 -29 -22 -10 -142 -60
-267 -112 -125 -51 -226 -94 -225 -95 1 -1 52 4 112 13 139 18 533 12 675 -11
197 -32 559 -120 547 -133 -2 -2 -35 3 -73 11 -241 51 -555 45 -864 -16 l-115
-22 120 -8 c167 -10 302 -34 425 -75 l105 -35 1160 -33 c638 -19 1277 -37
1421 -41 235 -6 326 -3 311 12 -3 3 -64 18 -136 34 -306 67 -550 143 -681 211
l-65 33 136 15 137 14 163 -54 c90 -29 170 -55 178 -57 11 -3 13 12 10 78 l-4
83 135 27 c226 45 364 91 399 134 15 18 24 14 -99 45 -145 36 -313 132 -283
162 5 5 78 21 163 36 129 23 184 27 330 28 150 0 180 -3 208 -18 32 -18 33
-18 24 0 -6 10 -46 61 -90 115 -57 68 -89 98 -109 102 -127 27 -783 54 -968
40z"/>
<path d="M22585 12047 c-100 -33 -273 -103 -288 -117 -4 -4 20 -10 55 -13 74
-7 275 -57 501 -124 l162 -48 -80 -8 c-202 -19 -728 -114 -703 -128 7 -3 38
-9 68 -13 104 -13 795 -116 1175 -176 450 -70 495 -76 733 -90 249 -15 266 -5
62 36 -250 50 -472 123 -508 167 -15 17 162 10 207 -9 23 -10 37 -11 41 -4 4
7 109 6 331 -2 268 -9 511 -6 497 7 -2 2 -68 15 -148 29 -271 49 -505 119
-562 166 -23 19 -16 19 532 19 305 0 602 -4 660 -9 58 -4 107 -7 109 -5 7 8
-178 121 -294 180 -217 110 -234 116 -348 121 -164 8 -1475 44 -1802 49 l-300
5 -100 -33z"/>
<path d="M11700 11965 c-7 -9 -11 -17 -9 -20 3 -2 10 5 17 15 14 24 10 26 -8
5z"/>
<path d="M22430 11447 c0 -2 21 -19 48 -37 26 -19 86 -64 134 -102 61 -48 112
-79 175 -104 79 -32 221 -104 281 -142 22 -14 22 -14 12 12 -22 60 -46 95
-112 162 l-69 71 108 -18 c60 -11 184 -30 276 -44 124 -19 181 -32 219 -51 52
-26 70 -26 48 2 -12 14 -10 15 21 10 148 -25 421 -34 449 -16 12 8 9 10 -12
10 -14 0 -109 16 -210 35 -175 33 -659 110 -1098 175 -113 16 -220 32 -237 35
-18 3 -33 4 -33 2z"/>
<path d="M22220 11247 c0 -11 259 -178 365 -236 179 -97 344 -156 423 -149
l37 3 -55 29 c-133 70 -237 143 -303 212 -39 41 -84 78 -101 84 -56 18 -366
66 -366 57z"/>
</g>
</svg>
